<?xml version="1.0" encoding="UTF-8"?>
<svg version="1.1" xmlns="http://www.w3.org/2000/svg" width="512" height="512">
<path d="M0 0 C0.84997559 0.18723633 1.69995117 0.37447266 2.57568359 0.56738281 C28.73732168 6.48787859 53.86506493 17.34069824 75 34 C75.93457031 34.72574219 76.86914062 35.45148437 77.83203125 36.19921875 C108.02036741 60.25487432 130.2015957 91.05321613 142 128 C142.23267578 128.70833984 142.46535156 129.41667969 142.70507812 130.14648438 C158.98336228 180.46539693 152.88939732 235.35017267 129.48364258 282.22338867 C121.82445354 297.13402444 111.79180068 310.27332638 101.34570312 323.31591797 C99.10967303 326.11420091 96.8991119 328.93240644 94.6875 331.75 C94.23922852 332.32032959 93.79095703 332.89065918 93.32910156 333.47827148 C87.18922864 341.29529917 81.09778171 349.1501333 75 357 C68.07885601 365.90980692 61.15459367 374.81651766 54.17626953 383.68164062 C48.08337801 391.4277795 42.04577739 399.21708011 36 407 C29.07885601 415.90980692 22.15459367 424.81651766 15.17626953 433.68164062 C9.08337801 441.4277795 3.04577739 449.21708011 -3 457 C-18.52316409 476.98345868 -18.52316409 476.98345868 -23.80175781 483.64208984 C-26.46870657 487.01453388 -29.07618914 490.42474496 -31.65234375 493.8671875 C-32.28011719 494.69734375 -32.90789062 495.5275 -33.5546875 496.3828125 C-34.79027064 498.01829392 -36.01591478 499.66134167 -37.23046875 501.3125 C-37.7925 502.05242187 -38.35453125 502.79234375 -38.93359375 503.5546875 C-39.42915771 504.21968262 -39.92472168 504.88467773 -40.43530273 505.56982422 C-42 507 -42 507 -46 507 C-48.06025914 504.81588364 -49.82995827 502.69981879 -51.625 500.3125 C-52.41994873 499.28636597 -52.41994873 499.28636597 -53.23095703 498.23950195 C-54.83205804 496.16815254 -56.41673813 494.08499979 -58 492 C-58.83725506 490.91307022 -59.67568968 489.82704742 -60.515625 488.7421875 C-62.1180688 486.66750033 -63.71610267 484.59008333 -65.30859375 482.5078125 C-73.06365994 472.38126528 -80.93363694 462.34187466 -88.82275391 452.31958008 C-95.52454734 443.79942345 -102.1616048 435.22861873 -108.81152344 426.66796875 C-114.69157631 419.099269 -120.57179176 411.53107679 -126.5 404 C-133.64584422 394.92206289 -140.72424644 385.79164394 -147.81152344 376.66796875 C-153.69157631 369.099269 -159.57179176 361.53107679 -165.5 354 C-170.22070789 348.00290743 -174.91408577 341.98487734 -179.59326172 335.95532227 C-182.57746456 332.11030731 -185.56940497 328.27201837 -188.58203125 324.44921875 C-192.08952939 319.99253647 -195.55647991 315.50625988 -199 311 C-199.51804199 310.32710938 -200.03608398 309.65421875 -200.56982422 308.9609375 C-226.3887032 275.12186707 -239.48984847 234.01471807 -239.375 191.625 C-239.3737915 190.79440063 -239.37258301 189.96380127 -239.37133789 189.10803223 C-239.18450272 141.54025413 -221.85447596 94.78331016 -189 60 C-187.91243658 58.71189298 -186.82898087 57.42030466 -185.75 56.125 C-176.46727413 45.54354414 -165.52541522 36.98016271 -154 29 C-153.14664063 28.39929687 -152.29328125 27.79859375 -151.4140625 27.1796875 C-107.52316328 -2.22295372 -51.4018331 -11.57792529 0 0 Z M-122.25 121.3125 C-143.13734405 145.14984232 -149.32608573 173.02853098 -148 204 C-145.80054677 230.27655958 -130.3056055 255.02343478 -110.68359375 271.9140625 C-86.27846239 290.88398993 -57.88249439 297.93735369 -27.26074219 294.71142578 C-6.39711893 291.62128675 12.36636093 280.78993042 28 267 C28.62261719 266.46117187 29.24523437 265.92234375 29.88671875 265.3671875 C49.2839816 247.37159166 59.52518017 220.10925694 60.96484375 194.1953125 C61.60974717 165.75167735 50.47429004 138.49925268 31 118 C13.57853261 100.16861573 -11.15202103 87.42658554 -36.35546875 86.69921875 C-38.63273225 86.67970549 -40.91018052 86.67628405 -43.1875 86.6875 C-44.98151245 86.69595947 -44.98151245 86.69595947 -46.81176758 86.70458984 C-76.38400582 87.11032184 -102.03913672 100.13773401 -122.25 121.3125 Z " fill="#F40000" transform="translate(300,4)"/>
<path d="M0 0 C0 30.03 0 60.06 0 91 C-9.9 91.99 -9.9 91.99 -20 93 C-48.28732441 99.8361034 -72.16848283 114.76604638 -87.828125 139.62304688 C-101.80923613 162.57084236 -106.70290638 189.59991437 -101.875 216.125 C-94.89796565 244.64685801 -78.78020441 268.4445278 -53.61328125 283.89453125 C-36.69392048 293.9447854 -19.45513768 297.50345095 0 299 C0 369.29 0 439.58 0 512 C-5.63585209 506.36414791 -5.63585209 506.36414791 -7.91015625 503.57421875 C-8.41869141 502.95095703 -8.92722656 502.32769531 -9.45117188 501.68554688 C-9.98291016 501.02619141 -10.51464844 500.36683594 -11.0625 499.6875 C-11.62904297 498.98818359 -12.19558594 498.28886719 -12.77929688 497.56835938 C-17.14604983 492.14270526 -21.33504834 486.59946666 -25.47875977 481.00268555 C-29.02996133 476.22954013 -32.7218016 471.59498487 -36.5 467 C-41.35266387 461.0970197 -45.99533726 455.07398124 -50.54638672 448.9362793 C-54.46150544 443.67287785 -58.52106172 438.54138347 -62.63867188 433.43554688 C-66.25377287 428.94865219 -69.78992173 424.40856853 -73.29052734 419.83203125 C-76.24785269 415.96882674 -79.23897459 412.13397676 -82.25 408.3125 C-86.45596938 402.97259768 -90.6408937 397.61679316 -94.8125 392.25 C-95.399104 391.49533447 -95.98570801 390.74066895 -96.59008789 389.96313477 C-98.99765236 386.86507176 -101.40457452 383.76651 -103.81152344 380.66796875 C-109.69157631 373.099269 -115.57179176 365.53107679 -121.5 358 C-126.22070789 352.00290743 -130.91408577 345.98487734 -135.59326172 339.95532227 C-138.57746456 336.11030731 -141.56940497 332.27201837 -144.58203125 328.44921875 C-148.08952939 323.99253647 -151.55647991 319.50625988 -155 315 C-155.51804199 314.32710938 -156.03608398 313.65421875 -156.56982422 312.9609375 C-182.3887032 279.12186707 -195.48984847 238.01471807 -195.375 195.625 C-195.3737915 194.79440063 -195.37258301 193.96380127 -195.37133789 193.10803223 C-195.18450272 145.54025413 -177.85447596 98.78331016 -145 64 C-143.91243658 62.71189298 -142.82898087 61.42030466 -141.75 60.125 C-132.46727413 49.54354414 -121.52541522 40.98016271 -110 33 C-109.14664063 32.39929687 -108.29328125 31.79859375 -107.4140625 31.1796875 C-74.98898332 9.45803252 -38.75636885 0 0 0 Z " fill="#FF3636" transform="translate(256,0)"/>
</svg>
